<svg width="22" height="22" viewBox="0 0 22 22" fill="none" xmlns="http://www.w3.org/2000/svg">
<path d="M10.8076 21.6153C16.7261 21.6153 21.6152 16.7261 21.6152 10.8076C21.6152 4.8892 16.7178 0 10.7993 0C4.8808 0 0 4.8892 0 10.8076C0 16.7261 4.8891 21.6153 10.8076 21.6153ZM10.8076 20.0713C5.6694 20.0713 1.5522 15.9375 1.5522 10.8076C1.5522 5.6778 5.6611 1.544 10.7993 1.544C15.9292 1.544 20.063 5.6778 20.0713 10.8076C20.0796 15.9375 15.9375 20.0713 10.8076 20.0713ZM10.7329 6.8482C11.4385 6.8482 11.9863 6.292 11.9863 5.5947C11.9863 4.8892 11.4385 4.333 10.7329 4.333C10.0356 4.333 9.4712 4.8892 9.4712 5.5947C9.4712 6.292 10.0356 6.8482 10.7329 6.8482ZM8.9067 16.668H13.2812C13.6631 16.668 13.9536 16.3858 13.9536 16.0122C13.9536 15.647 13.6631 15.3648 13.2812 15.3648H11.8203V9.5542C11.8203 9.0728 11.5713 8.7407 11.1064 8.7407H9.0561C8.6826 8.7407 8.3838 9.0313 8.3838 9.3882C8.3838 9.7617 8.6826 10.044 9.0561 10.044H10.3677V15.3648H8.9067C8.5249 15.3648 8.2261 15.647 8.2261 16.0122C8.2261 16.3858 8.5249 16.668 8.9067 16.668Z" fill="#007AFF"/>
</svg>
