<svg width="17" height="17" viewBox="0 0 17 17" fill="none" xmlns="http://www.w3.org/2000/svg">
<path d="M8.4668 16.9336C13.0903 16.9336 16.9336 13.0987 16.9336 8.4668C16.9336 3.84326 13.082 0 8.4585 0C3.82666 0 0 3.84326 0 8.4668C0 13.0987 3.83496 16.9336 8.4668 16.9336ZM5.48682 12.1524C5.09668 12.1524 4.78125 11.837 4.78125 11.4468C4.78125 11.2559 4.86426 11.0899 4.99707 10.9654L7.47071 8.4751L4.99707 5.98486C4.86426 5.86865 4.78125 5.69434 4.78125 5.50342C4.78125 5.12158 5.09668 4.81445 5.48682 4.81445C5.67774 4.81445 5.84375 4.88916 5.96826 5.02197L8.4585 7.50391L10.9653 5.01367C11.1064 4.86426 11.2559 4.79785 11.4385 4.79785C11.8286 4.79785 12.144 5.11328 12.144 5.49512C12.144 5.68603 12.0776 5.84375 11.9365 5.97656L9.44629 8.4751L11.9282 10.9488C12.0527 11.0816 12.1357 11.2476 12.1357 11.4468C12.1357 11.837 11.8203 12.1524 11.4302 12.1524C11.231 12.1524 11.0649 12.0694 10.9404 11.9449L8.4585 9.45459L5.98487 11.9449C5.86035 12.0777 5.67774 12.1524 5.48682 12.1524Z" fill="#979797"/>
</svg>
